<?xml version="1.0" encoding="UTF-8"?>
<svg width="410px" height="205px" viewBox="0 0 410 205" version="1.1" xmlns="http://www.w3.org/2000/svg" xmlns:xlink="http://www.w3.org/1999/xlink">
    <title>impulse-logo</title>
    <defs>
        <polygon id="path-1" points="0 144 350.343 144 350.343 0.085 0 0.085"></polygon>
    </defs>
    <g id="impulse-logo" stroke="none" stroke-width="1" fill="none" fill-rule="evenodd">
        <g id="Group-33" transform="translate(30.000000, 30.000000)">
            <polygon id="Fill-1" fill="#F18D44" points="122.999 46.0115 119.499 49.5115 115.999 49.5115 115.999 36.7865 119.499 33.2865 122.999 33.2865"></polygon>
            <polygon id="Fill-2" fill="#F18D44" points="164.6201 46.0115 161.1201 49.5115 157.6201 49.5115 157.6201 36.7865 161.1201 33.2865 164.6201 33.2865"></polygon>
            <polygon id="Fill-3" fill="#F18D44" points="178.4931 46.0115 174.9931 49.5115 171.4931 49.5115 171.4931 36.7865 174.9931 33.2865 178.4931 33.2865"></polygon>
            <polygon id="Fill-4" fill="#F18D44" points="192.3661 59.8493 188.8661 63.3493 185.3661 63.3493 185.3661 22.9503 188.8661 19.4503 192.3661 19.4503"></polygon>
            <polygon id="Fill-5" fill="#F18D44" points="220.1142 59.8493 216.6142 63.3493 213.1142 63.3493 213.1142 22.9503 216.6142 19.4503 220.1142 19.4503"></polygon>
            <polygon id="Fill-6" fill="#F18D44" points="233.9872 46.0115 230.4872 49.5115 226.9872 49.5115 226.9872 36.7865 230.4872 33.2865 233.9872 33.2865"></polygon>
            <polygon id="Fill-7" fill="#F18D44" points="202.7412 0.9996 199.2412 4.4996 199.2412 81.7986 202.7412 81.7986 206.2412 78.2986 206.2412 0.9996"></polygon>
            <polygon id="Fill-8" fill="#F18D44" points="136.872 64.4616 133.372 67.9616 129.872 67.9616 129.872 18.3376 133.372 14.8376 136.872 14.8376"></polygon>
            <polygon id="Fill-9" fill="#F18D44" points="150.747 55.237 147.247 58.737 143.747 58.737 143.747 27.562 147.247 24.062 150.747 24.062"></polygon>
            <path d="M0,97.001 L7.123,97.001 L7.123,90.056 L0,90.056 L0,97.001 Z M0.117,133.143 L7.004,133.143 L7.004,102.241 L0.117,102.241 L0.117,133.143 Z" id="Fill-10" fill="#E42385"></path>
            <g id="Group-32" transform="translate(0.000000, 0.915000)">
                <path d="M15.7734,132.2283 L15.7734,101.3263 L50.9724,101.3263 C57.1324,101.3263 60.2144,104.4253 60.2144,110.6243 L60.2144,132.2283 L53.3864,132.2283 L53.3864,110.0373 C53.3864,108.1933 52.4644,107.2713 50.6214,107.2713 L41.4374,107.2713 L41.4374,132.2283 L34.5504,132.2283 L34.5504,107.2713 L22.6604,107.2713 L22.6604,132.2283 L15.7734,132.2283 Z" id="Fill-11" fill="#E42385"></path>
                <path d="M75.6953,126.2244 L85.4083,126.2244 C87.2523,126.2244 88.1743,125.3224 88.1743,123.5154 L88.1743,110.0374 C88.1743,108.1934 87.2523,107.2714 85.4083,107.2714 L75.6953,107.2714 L75.6953,126.2244 Z M68.8083,143.9994 L68.8083,101.3264 L85.7613,101.3264 C91.9223,101.3264 95.0023,104.4254 95.0023,110.6244 L95.0023,122.9274 C95.0023,129.1284 91.9223,132.2284 85.7613,132.2284 L75.6953,132.2284 L75.6953,143.9994 L68.8083,143.9994 Z" id="Fill-13" fill="#E42385"></path>
                <path d="M103.1249,122.9275 L103.1249,101.3255 L110.0119,101.3255 L110.0119,123.5155 C110.0119,125.3225 110.9139,126.2245 112.7189,126.2245 L122.4899,126.2245 L122.4899,101.3255 L129.3179,101.3255 L129.3179,132.2285 L112.4239,132.2285 C106.2249,132.2285 103.1249,129.1285 103.1249,122.9275" id="Fill-15" fill="#E42385"></path>
                <path d="M137.912,121.9861 L137.912,88.6701 L144.799,88.6701 L144.799,122.6931 C144.799,125.2051 146.094,126.5781 148.683,126.8121 L148.683,132.7571 C141.502,132.7571 137.912,129.1681 137.912,121.9861" id="Fill-17" fill="#E42385"></path>
                <path d="M154.2148,129.9314 L154.2148,126.2244 L167.7518,126.2244 C169.6368,126.2244 170.5778,125.2634 170.5778,123.3394 C170.5778,121.3374 169.7538,120.2014 168.1058,119.9254 L161.5138,118.8674 C156.6468,118.0424 154.2148,115.2754 154.2148,110.5664 C154.2148,104.4064 157.3148,101.3264 163.5138,101.3264 L172.8728,101.3264 L175.9338,103.6204 L175.9338,107.2714 L163.8088,107.2714 C161.9628,107.2714 161.0428,108.2514 161.0428,110.2124 C161.0428,112.0584 161.8458,113.1174 163.4548,113.3924 L170.1078,114.5094 C174.9338,115.2964 177.3478,118.1204 177.3478,122.9864 C177.3478,129.1484 174.2658,132.2284 168.1058,132.2284 L157.3338,132.2284 L154.2148,129.9314 Z" id="Fill-19" fill="#E42385"></path>
                <path d="M191.4726,113.9216 L203.9516,113.9216 L203.9516,110.0366 C203.9516,108.1926 203.0306,107.2716 201.1866,107.2716 L194.1826,107.2716 C192.3736,107.2716 191.4726,108.1926 191.4726,110.0366 L191.4726,113.9216 Z M184.5856,122.9276 L184.5856,110.6246 C184.5856,104.4256 187.6856,101.3256 193.8856,101.3256 L201.5376,101.3256 C207.6986,101.3256 210.7806,104.4256 210.7806,110.6246 L210.7806,119.4546 L191.4726,119.4546 L191.4726,123.5156 C191.4726,125.3216 192.3736,126.2246 194.1826,126.2246 L209.6046,126.2246 L209.6046,129.9316 L206.4836,132.2286 L193.8856,132.2286 C187.6856,132.2286 184.5856,129.1286 184.5856,122.9276 L184.5856,122.9276 Z" id="Fill-21" fill="#E42385"></path>
                <path d="M218.9052,132.2283 L218.9052,105.1523 C220.3152,102.6013 223.0222,101.3263 227.0262,101.3263 L233.2062,101.3263 L236.2682,103.6213 L236.2682,107.2713 L228.2022,107.2713 C227.0652,107.2713 226.2602,107.5643 225.7922,108.1543 L225.7922,132.2283 L218.9052,132.2283 Z" id="Fill-23" fill="#593B8E"></path>
                <path d="M246.8622,123.5154 C246.8622,125.3224 247.7642,126.2244 249.5692,126.2244 L258.3972,126.2244 L258.3972,119.3964 L249.5692,119.3964 C247.7642,119.3964 246.8622,120.2984 246.8622,122.1034 L246.8622,123.5154 Z M249.2762,132.2284 C243.0732,132.2284 239.9752,129.1674 239.9752,123.0444 C239.9752,116.9234 243.0732,113.8634 249.2762,113.8634 L258.3972,113.8634 L258.3972,110.0364 C258.3972,108.1934 257.4752,107.2714 255.6322,107.2714 L243.1552,107.2714 L243.1552,103.6204 L246.2142,101.3264 L255.9872,101.3264 C262.1472,101.3264 265.2252,104.4254 265.2252,110.6244 L265.2252,132.2284 L249.2762,132.2284 Z" id="Fill-25" fill="#593B8E"></path>
                <path d="M280.2372,123.5154 C280.2372,125.3224 281.1392,126.2244 282.9442,126.2244 L292.7142,126.2244 L292.7142,107.2714 L282.9442,107.2714 C281.1392,107.2714 280.2372,108.1934 280.2372,110.0364 L280.2372,123.5154 Z M273.3502,122.9274 L273.3502,110.6244 C273.3502,104.4254 276.4482,101.3264 282.6512,101.3264 L292.7142,101.3264 L292.7142,88.6694 L299.5422,88.6694 L299.5422,132.2284 L282.6512,132.2284 C276.4482,132.2284 273.3502,129.1284 273.3502,122.9274 L273.3502,122.9274 Z" id="Fill-27" fill="#593B8E"></path>
                <mask id="mask-2" fill="white">
                    <use xlink:href="#path-1"></use>
                </mask>
                <g id="Clip-30"></g>
                <path d="M308.374,132.228 L315.261,132.228 L315.261,101.326 L308.374,101.326 L308.374,132.228 Z M308.257,96.085 L315.378,96.085 L315.378,89.14 L308.257,89.14 L308.257,96.085 Z" id="Fill-29" fill="#593B8E" mask="url(#mask-2)"></path>
                <path d="M330.4443,123.5154 C330.4443,125.3224 331.3463,126.2244 333.1553,126.2244 L340.7453,126.2244 C342.5893,126.2244 343.5143,125.3224 343.5143,123.5154 L343.5143,110.0364 C343.5143,108.1934 342.5893,107.2714 340.7453,107.2714 L333.1553,107.2714 C331.3463,107.2714 330.4443,108.1934 330.4443,110.0364 L330.4443,123.5154 Z M323.5573,122.9274 L323.5573,110.6244 C323.5573,104.4254 326.6593,101.3264 332.8583,101.3264 L341.1003,101.3264 C347.2603,101.3264 350.3423,104.4254 350.3423,110.6244 L350.3423,122.9274 C350.3423,129.1284 347.2603,132.2284 341.1003,132.2284 L332.8583,132.2284 C326.6593,132.2284 323.5573,129.1284 323.5573,122.9274 L323.5573,122.9274 Z" id="Fill-31" fill="#593B8E" mask="url(#mask-2)"></path>
            </g>
        </g>
    </g>
</svg>